<svg xmlns="http://www.w3.org/2000/svg" xmlns:xlink="http://www.w3.org/1999/xlink" style="vertical-align:-.505ex" width="29.326ex" height="2.384ex" viewBox="0 -809.3 12626.6 1026.6"><defs><path id="a" stroke-width="1" d="M121 647q0 10 4 23t12 13q1 0 72 5t73 6q12 0 12-8 0-7-50-209-50-198-50-205 19 10 29 19 24 18 69 63t70 61q40 27 76 27 30 0 47-19t18-54q0-25-7-42t-19-25-21-11-18-3q-20 0-32 11t-12 29q0 25 16 41t32 21l16 3q-12 12-24 12h-4q-32-3-63-25t-73-64-66-61q2-1 15-3t24-6 26-8 27-14 22-18 17-26 6-33q0-17-5-41t-6-40q0-40 27-40 48 0 78 119 2 8 20 8h4q16 0 16-9 0-5-3-14Q455-11 378-11q-45 0-73 26t-28 75q0 18 3 31t3 24q0 22-14 38t-35 23-34 11-18 3h-2q-12-42-21-81t-14-58-9-37-7-24-7-13-11-9q-13-9-28-9-17 0-26 10t-9 17q0 10 37 160t73 295l37 145q1 13-7 16t-39 5h-18q-3 0-7 3t-3 7z"/><path id="b" stroke-width="1" d="M213 578l-13-5q-14-5-40-10t-58-7H83v46h19q47 2 87 15t56 24 28 22q2 3 12 3 9 0 17-6V361l1-300q7-7 12-9t24-4 62-2h26V0h-11q-21 3-159 3-136 0-157-3H88v46h64q16 0 25 1t16 3 8 2 6 5 6 4v517z"/><path id="c" stroke-width="1" d="M34 156q0 114 86 200t189 86q70 0 112-40t57-98q6-29 7-67v-29q49 74 75 166 4 14 6 16t16 3q21 0 21-8 0-9-9-39t-36-85-61-100l-11-14 1-24q2-56 8-76t19-21q14 2 26 11t17 23q2 7 5 8t15 2q20 0 20-8 0-6-6-19-12-24-35-38t-44-15h-7q-67 0-91 72l-3 7-11-8q-10-8-30-20t-45-23-58-20-64-9q-79 0-124 50T34 156zM208 26q49 0 98 21t73 43l24 22q-2 143-7 178-14 115-92 115-69 0-121-73-27-40-44-108t-18-104q0-49 25-71t62-23z"/><path id="d" stroke-width="1" d="M56 237v13l14 20h299v150l1 150q10 13 19 13 13 0 20-15V270h298q15-8 15-20t-15-20H409V-68q-8-14-18-14h-4q-12 0-18 14v298H70q-14 7-14 20z"/><path id="e" stroke-width="1" d="M109 429q-27 0-43 18t-16 44q0 71 53 123t132 52q91 0 152-56t62-145q0-43-20-82t-48-68-80-74q-36-31-100-92l-59-56 76-1q157 0 167 5 7 2 24 89v3h40v-3q-1-3-13-91T421 3V0H50v31q0 7 6 15t30 35q29 32 50 56 9 10 34 37t34 37 29 33 28 34 23 30 21 32 15 29 13 32 7 30 3 33q0 63-34 109t-97 46q-33 0-58-17t-35-33-10-19q0-1 5-1 18 0 37-14t19-46q0-25-16-42t-45-18z"/><path id="f" stroke-width="1" d="M78 250q0 24 17 42t43 18q24 0 42-16t19-43q0-25-17-43t-43-18-43 17-18 43zm447 0q0 24 17 42t43 18q24 0 42-16t19-43q0-25-17-43t-43-18-43 17-18 43zm447 0q0 24 17 42t43 18q24 0 42-16t19-43q0-25-17-43t-43-18-43 17-18 43z"/><path id="g" stroke-width="1" d="M21 287q1 6 3 16t12 38 20 47 32 37 44 17 43-7 30-18 16-22 8-19l2-7q0-2 1-2l11 11q60 64 141 64 17 0 31-2t26-7 19-10 15-12 10-13 8-13 4-12 3-9 2-7l8 10q63 75 149 75 54 0 87-27t34-79q0-51-38-158T704 50q1-14 5-19t15-5q28 0 52 30t39 82q3 11 6 13t16 2q20 0 20-8 0-1-4-15-8-29-22-57t-46-56-69-27q-47 0-68 27t-21 56q0 19 36 120t37 152q0 59-44 59h-5q-86 0-145-101l-7-12-33-134Q433 26 428 16q-13-27-43-27-13 0-21 7T353 8t-3 10q0 11 34 143l36 146q3 15 3 38 0 59-44 59h-5q-86 0-145-101l-7-12-33-134Q156 26 151 16q-13-27-43-27-13 0-21 6T76 7t-2 10q0 13 38 164 39 154 39 161 3 15 3 27 0 36-25 36-22 0-37-28t-23-61-12-36q-2-2-16-2H27q-6 6-6 9z"/><path id="h" stroke-width="1" d="M56 347q0 13 14 20h637q15-8 15-20 0-11-14-19l-318-1H72q-16 5-16 20zm0-194q0 15 16 20h636q14-10 14-20 0-13-15-20H70q-14 7-14 20z"/><path id="i" stroke-width="1" d="M740 435q0-115-64-222T511 42 304-22q-97 0-166 57T51 201q-1 8-1 43 0 102 48 194t129 163q124 103 249 103 38 0 48-1 97-14 156-86t60-182zm-103 41q0 89-46 139t-115 50q-80 0-154-60-80-63-122-177t-43-212q0-90 43-143t114-54q90 0 171 79t123 215q29 95 29 163z"/></defs><g fill="currentColor" stroke="currentColor" stroke-width="0" transform="scale(1 -1)"><use xlink:href="#a"/><use x="737" y="-213" transform="scale(.707)" xlink:href="#b"/><g transform="translate(975)"><use xlink:href="#c"/><use x="905" y="-213" transform="scale(.707)" xlink:href="#b"/></g><use x="2292" xlink:href="#d"/><g transform="translate(3292)"><use xlink:href="#a"/><use x="737" y="-213" transform="scale(.707)" xlink:href="#e"/></g><g transform="translate(4268)"><use xlink:href="#c"/><use x="905" y="-213" transform="scale(.707)" xlink:href="#e"/></g><use x="5584" xlink:href="#d"/><use x="6585" xlink:href="#f"/><g transform="translate(7924)"><use xlink:href="#a"/><use x="737" y="-213" transform="scale(.707)" xlink:href="#g"/></g><g transform="translate(9167)"><use xlink:href="#c"/><use x="905" y="-213" transform="scale(.707)" xlink:href="#g"/></g><use x="10806" xlink:href="#h"/><use x="11863" xlink:href="#i"/></g></svg>